<svg width="26" height="20" viewBox="0 0 26 20" fill="none" xmlns="http://www.w3.org/2000/svg">
<path d="M24.5 4L25.4625 4.27116L25.8206 3H24.5V4ZM21.9444 13.0714V14.0714H22.7016L22.907 13.3426L21.9444 13.0714ZM9.16666 13.0714L8.22139 13.3977L8.45393 14.0714H9.16666V13.0714ZM5 1L5.94527 0.673722L5.71273 0H5V1ZM1 0C0.447715 0 0 0.447715 0 1C0 1.55228 0.447715 2 1 2V0ZM21.9444 5H24.5V3H21.9444V5ZM23.5375 3.72884L20.9819 12.8003L22.907 13.3426L25.4625 4.27116L23.5375 3.72884ZM21.9444 12.0714H9.16666V14.0714H21.9444V12.0714ZM10.1119 12.7451L5.94527 0.673722L4.05473 1.32628L8.22139 13.3977L10.1119 12.7451ZM5 0H1V2H5V0Z" fill="#343434"/>
<path fill-rule="evenodd" clip-rule="evenodd" d="M11.0833 19.5C12.1418 19.5 13 18.6365 13 17.5714C13 16.5063 12.1418 15.6428 11.0833 15.6428C10.0247 15.6428 9.16663 16.5063 9.16663 17.5714C9.16663 18.6365 10.0247 19.5 11.0833 19.5Z" fill="#343434"/>
<path fill-rule="evenodd" clip-rule="evenodd" d="M20.0278 19.5C21.0863 19.5 21.9444 18.6365 21.9444 17.5714C21.9444 16.5063 21.0863 15.6428 20.0278 15.6428C18.9692 15.6428 18.1111 16.5063 18.1111 17.5714C18.1111 18.6365 18.9692 19.5 20.0278 19.5Z" fill="#343434"/>
<path fill-rule="evenodd" clip-rule="evenodd" d="M22 5L21 3H22V5Z" fill="#343434"/>
<path d="M14 0V8" stroke="#343434" stroke-width="2"/>
<path d="M10 4H18" stroke="#343434" stroke-width="2"/>
</svg>
