<svg width="24" height="24" viewBox="0 0 24 24" fill="none" xmlns="http://www.w3.org/2000/svg">
<circle cx="12" cy="12" r="12" fill="#666F7C"/>
<path fill-rule="evenodd" clip-rule="evenodd" d="M8.31892 18.7051C8.79207 18.6091 9.2674 18.3603 9.64243 18.0154C9.91716 17.7644 10.1832 17.3585 10.1832 17.1926C10.1832 17.1468 10.157 17.0835 10.109 17.018C9.93678 16.7736 9.76017 16.3545 9.67731 15.9835C9.60754 15.667 9.60754 15.1432 9.67731 14.8835C9.79723 14.447 10.0741 14.0301 10.4426 13.7333C10.5756 13.6264 10.6083 13.6089 10.6323 13.6329C10.6476 13.6482 11.0837 14.698 11.6004 15.9639C12.1172 17.2297 12.5554 18.2882 12.5729 18.3166L12.6034 18.3646H15.0476C17.4526 18.3646 17.4919 18.3646 17.481 18.3232C17.4744 18.2992 16.7789 16.9656 15.9329 15.3593C15.0869 13.753 14.3913 12.426 14.387 12.4107C14.3826 12.3889 14.4698 12.3518 14.6639 12.2885C15.8457 11.9 16.8879 11.2518 17.6271 10.4442C18.1656 9.85496 18.5145 9.21766 18.678 8.52144C18.7543 8.20279 18.7718 7.71172 18.7216 7.36688C18.4927 5.81947 17.1888 4.98356 15.5317 5.32622C14.7773 5.48118 14.1079 5.95479 13.9444 6.44804L13.9073 6.55935L14.0294 6.7405C14.3172 7.17045 14.5091 7.75101 14.5658 8.37739C14.6334 9.09544 14.411 9.74147 13.9444 10.1758C13.7656 10.3417 13.5541 10.4944 13.5148 10.4813C13.4974 10.4748 12.7604 8.60874 11.7378 5.97006C11.6942 5.85657 11.6397 5.74526 11.6179 5.72344C11.5808 5.68634 11.4805 5.68415 9.31318 5.68415C8.06599 5.68415 7.03248 5.6907 7.01286 5.69725C6.99323 5.7038 6.97797 5.73435 6.97797 5.76272C6.97797 5.7911 7.62119 7.1028 8.40832 8.6764C9.19326 10.2522 9.82994 11.5464 9.81904 11.5552C9.81032 11.5639 9.67949 11.6097 9.52904 11.6577C8.36253 12.0353 7.28759 12.6792 6.50918 13.4649C5.84852 14.1327 5.42552 14.8726 5.28598 15.6081C5.23801 15.8591 5.23801 16.3436 5.28598 16.6099C5.42988 17.4392 5.90085 18.1049 6.60076 18.4694C6.81662 18.5807 7.1088 18.6789 7.32684 18.7117C7.41623 18.7248 7.51435 18.74 7.54488 18.7444C7.64517 18.7619 8.16411 18.7357 8.31892 18.7051Z" fill="white"/>
</svg>
