<svg width="32" height="32" viewBox="0 0 32 32" fill="none" xmlns="http://www.w3.org/2000/svg">
<path fill-rule="evenodd" clip-rule="evenodd" d="M16 32C24.8366 32 32 24.8366 32 16C32 7.16344 24.8366 0 16 0C7.16344 0 0 7.16344 0 16C0 24.8366 7.16344 32 16 32ZM11.8047 11.2929C11.791 13.6477 13.7189 15.5968 16.07 15.6048C18.445 15.613 20.3862 13.7083 20.3983 11.3582C20.4102 8.95265 18.5007 7.00643 16.1217 7.00002C13.7474 6.99343 11.8183 8.91205 11.8047 11.2929ZM16.1046 9.19746C17.2715 9.19853 18.2027 10.1294 18.2067 11.2986C18.2107 12.4676 17.282 13.4045 16.1154 13.4086C14.9453 13.4129 14.0061 12.4886 13.9974 11.3239C13.9883 10.144 14.9279 9.19621 16.1046 9.19746ZM11.7437 17.7166C12.7611 18.5123 13.9493 18.8369 15.2672 18.9743C15.2314 19.0126 15.2006 19.0463 15.1725 19.0769L15.1725 19.0769C15.1276 19.1259 15.0899 19.167 15.0506 19.2067L14.4871 19.7717C13.7085 20.5525 12.9298 21.3334 12.1493 22.1127C11.949 22.3127 11.8055 22.5356 11.7912 22.8274C11.7706 23.2588 12.0382 23.6881 12.4587 23.892C12.8544 24.0841 13.2603 24.0235 13.6014 23.6872C14.3612 22.9382 15.1164 22.1848 15.8596 21.4198C16.0455 21.2286 16.1468 21.1869 16.3574 21.4071C16.844 21.9164 17.3436 22.413 17.8433 22.9097C18.0869 23.1518 18.3304 23.3939 18.5725 23.6375C18.7653 23.8318 18.9823 23.9703 19.2606 23.9895C19.6999 24.0196 20.1478 23.7385 20.348 23.3112C20.531 22.9202 20.4615 22.5034 20.1291 22.1672C19.5089 21.5401 18.8856 20.9158 18.2624 20.2915L18.2605 20.2897C17.904 19.9326 17.5474 19.5754 17.1914 19.2177C17.1407 19.1667 17.0992 19.1214 17.0364 19.0525L17.0363 19.0525L16.9633 18.9727C17.6842 18.8865 18.4126 18.7568 19.0776 18.4989C19.7809 18.2262 20.4138 17.8354 20.9401 17.2952C21.2832 16.9428 21.2868 16.4998 21.0083 16.046C20.7646 15.6486 20.341 15.4818 19.8868 15.5984C19.6532 15.6586 19.4517 15.7764 19.2631 15.921C17.36 17.2012 14.7554 17.1652 12.8593 15.8624C12.7664 15.798 12.6694 15.738 12.5675 15.6899C12.0416 15.4419 11.5356 15.5574 11.2341 15.9894C10.8818 16.4941 10.9267 16.984 11.3719 17.4116C11.464 17.5 11.5658 17.5787 11.6674 17.6573L11.6674 17.6573L11.6987 17.6815L11.7437 17.7166Z" fill="#DADADA"/>
</svg>
