<svg width="32" height="32" viewBox="0 0 32 32" fill="none" xmlns="http://www.w3.org/2000/svg">
<path class="st0" fill="#DADADA"  fill-rule="evenodd" clip-rule="evenodd"  d="M16,0C7.2,0,0,7.2,0,16c0,8.8,7.2,16,16,16c8.8,0,16-7.2,16-16C32,7.2,24.8,0,16,0z M22.5,13.1
	c0.2,4.7-3.3,10-9.6,10c-1.9,0-3.7-0.6-5.2-1.5c1.8,0.2,3.6-0.3,5-1.4c-1.5,0-2.7-1-3.1-2.3c0.5,0.1,1,0.1,1.5-0.1
	c-1.6-0.3-2.7-1.8-2.7-3.3c0.5,0.3,1,0.4,1.5,0.4c-1.5-1-1.9-3-1-4.5c1.7,2,4.1,3.4,6.9,3.5c-0.5-2.1,1.1-4.1,3.3-4.1
	c1,0,1.8,0.4,2.5,1.1c0.8-0.2,1.5-0.4,2.1-0.8c-0.3,0.8-0.8,1.4-1.5,1.9c0.7-0.1,1.3-0.3,1.9-0.5C23.8,12.1,23.2,12.6,22.5,13.1z"/>
</svg>
