<svg width="32" height="32" viewBox="0 0 32 32" fill="none" xmlns="http://www.w3.org/2000/svg">
<path fill-rule="evenodd" clip-rule="evenodd" d="M32 16C32 24.8366 24.8366 32 16 32C7.16344 32 0 24.8366 0 16C0 7.16344 7.16344 0 16 0C24.8366 0 32 7.16344 32 16ZM11.3992 8.5C9.80076 8.5 8.50081 9.8 8.50081 11.3985V14.46V20.6015C8.50081 22.2 9.80076 23.5 11.3992 23.5H20.6008C22.1992 23.5 23.5002 22.2 23.5002 20.6015V14.46V11.3985C23.5002 9.7995 22.1992 8.5 20.6008 8.5H11.3992ZM21.7638 10.2275L21.4328 10.2285L19.2219 10.2355L19.2309 12.7785L21.7638 12.7695V10.5575V10.2275ZM13.8601 14.46C14.3406 13.796 15.12 13.3595 16.0005 13.3595C16.881 13.3595 17.6604 13.796 18.1409 14.46C18.4534 14.8945 18.6409 15.425 18.6409 16C18.6409 17.455 17.4554 18.6395 16.0005 18.6395C14.5446 18.6395 13.3601 17.455 13.3601 16C13.3601 15.4245 13.5476 14.8945 13.8601 14.46ZM20.6008 22.038C21.3938 22.038 22.0392 21.3935 22.0392 20.6015V14.46H19.7993C19.9923 14.9355 20.1018 15.456 20.1018 16C20.1018 18.2605 18.2619 20.1015 16.0005 20.1015C13.7391 20.1015 11.8992 18.2605 11.8992 16C11.8992 15.456 12.0077 14.9355 12.2012 14.46H9.96175V20.6015C9.96175 21.3935 10.6062 22.038 11.3992 22.038H20.6008Z" fill="#DADADA"/>
</svg>
