<svg width="32" height="32" viewBox="0 0 32 32" fill="none" xmlns="http://www.w3.org/2000/svg">
<path fill-rule="evenodd" clip-rule="evenodd" d="M16 32C24.8366 32 32 24.8366 32 16C32 7.16344 24.8366 0 16 0C7.16344 0 0 7.16344 0 16C0 24.8366 7.16344 32 16 32ZM22.743 10.2385C23.6856 10.3392 24.4686 11.0147 24.689 11.9303C25 13.2236 25 14.6344 25 15.9672V16.0001C25 17.3424 24.9989 18.7656 24.6851 20.0695C24.4647 20.9851 23.6815 21.6606 22.7395 21.7614C20.5078 21.9999 18.2489 22.0011 15.9993 21.9999C13.7502 22.0011 11.4908 21.9999 9.25885 21.7614C8.31625 21.6604 7.53364 20.9849 7.31364 20.0695C7 18.7657 7 17.3426 7 16.0001C7 14.6576 7.00353 13.2343 7.31717 11.9303C7.53754 11.0147 8.31997 10.3392 9.26201 10.2385C11.4941 10.0001 13.7537 9.9989 16.0029 10.0001C18.2517 9.9989 20.5109 10.0001 22.743 10.2385ZM13.6771 12.9787V18.6723C14.4826 18.2728 15.285 17.8749 16.0871 17.4771C17.1897 16.9303 18.2917 16.3839 19.3996 15.8343L13.6771 12.9787Z" fill="#DADADA"/>
</svg>
