<?xml version="1.0" encoding="utf-8"?>
<!-- Generator: Adobe Illustrator 25.0.0, SVG Export Plug-In . SVG Version: 6.00 Build 0)  -->
<svg version="1.1" id="Слой_1" xmlns="http://www.w3.org/2000/svg" xmlns:xlink="http://www.w3.org/1999/xlink" x="0px" y="0px"
	 width="32" height="32" viewBox="0 0 32 32" style="enable-background:new 0 0 32 32;" xml:space="preserve">
<style type="text/css">
	.st0{fill-rule:evenodd;clip-rule:evenodd;fill:#DADADA;}
</style>
<path class="st0" d="M16,0C7.2,0,0,7.2,0,16c0,8.8,7.2,16,16,16c8.8,0,16-7.2,16-16C32,7.2,24.8,0,16,0z M23,14.8L23,14.8
	c-1.4,0-2.8-0.5-3.8-1.2v5.6c0,2.8-2.3,5.1-5.1,5.1C11.3,24.2,9,22,9,19.2c0-2.8,2.3-5.1,5.1-5.1c0.2,0,0.5,0,0.7,0v2.8
	c-0.2-0.1-0.5-0.1-0.7-0.1c-1.3,0-2.3,1-2.3,2.3c0,1.3,1,2.3,2.3,2.3c1.3,0,2.3-1,2.3-2.3V8.2h2.8c0,0,0,0,0,0c0,0.2,0,0.4,0.1,0.7
	c0.2,1,0.8,1.9,1.7,2.5c0.6,0.4,1.3,0.6,2.1,0.6l0,0V14.8z"/>
</svg>
