<svg width="24" height="24" viewBox="0 0 24 24" fill="none" xmlns="http://www.w3.org/2000/svg">
<circle cx="12" cy="12" r="12" fill="#666F7C"/>
<path d="M6.75 18.75V5.25H8.81358C8.67197 6.97917 8.81358 9.5625 8.81358 9.5625C9.23844 8.6875 10.513 7.3125 12.3338 6.25C13.542 5.54497 14.5795 5.25 15.4899 5.25C15.7327 5.75 16.1575 6.4375 16.7038 7.3125C16.1575 7.3125 14.8829 7.3125 13.487 8C12.2114 8.62821 10.8165 10.1875 10.6951 10.5625C10.6951 10.5625 11.3627 10.875 12.5159 11.875C14.0332 13.1908 15.672 16.625 15.9754 17.125C16.2182 17.525 16.9263 18.375 17.25 18.75H14.5795C14.3367 18.75 13.487 16.5625 12.0303 14.5625C10.865 12.9625 9.40029 12.3125 8.81358 12.1875V18.75H6.75Z" fill="white"/>
</svg>
