<svg width="40" height="31" viewBox="0 0 40 31" fill="none" xmlns="http://www.w3.org/2000/svg">
<path d="M39.1706 30.5751V30.6558H39.2452C39.2617 30.6558 39.2759 30.6519 39.2861 30.6456C39.2955 30.6393 39.301 30.6284 39.301 30.6151C39.301 30.6018 39.2955 30.5916 39.2861 30.5853C39.2759 30.5783 39.2617 30.5751 39.2452 30.5751H39.1706ZM39.246 30.5188C39.2845 30.5188 39.3144 30.5274 39.3356 30.5446C39.3568 30.5618 39.367 30.5853 39.367 30.6151C39.367 30.6401 39.3592 30.6605 39.3419 30.6769C39.3254 30.6926 39.3018 30.7028 39.2704 30.7067L39.3694 30.8202H39.2924L39.2004 30.7075H39.1706V30.8202H39.1061V30.5188H39.246ZM39.2264 30.9244C39.2617 30.9244 39.2947 30.9173 39.3246 30.904C39.3553 30.8907 39.382 30.8727 39.4048 30.85C39.4276 30.8273 39.4456 30.8006 39.459 30.7693C39.4716 30.7388 39.4786 30.7059 39.4786 30.6707C39.4786 30.6354 39.4716 30.6025 39.459 30.572C39.4456 30.5415 39.4276 30.5141 39.4048 30.4914C39.382 30.4687 39.3553 30.4506 39.3246 30.4373C39.2947 30.4248 39.2617 30.4185 39.2264 30.4185C39.191 30.4185 39.1572 30.4248 39.1266 30.4373C39.0951 30.4506 39.0676 30.4687 39.0448 30.4914C39.022 30.5141 39.004 30.5415 38.9914 30.572C38.978 30.6025 38.9717 30.6354 38.9717 30.6707C38.9717 30.7059 38.978 30.7388 38.9914 30.7693C39.004 30.8006 39.022 30.8273 39.0448 30.85C39.0676 30.8727 39.0951 30.8907 39.1266 30.904C39.1572 30.9173 39.191 30.9244 39.2264 30.9244ZM39.2264 30.3457C39.2727 30.3457 39.3152 30.3543 39.356 30.3716C39.3961 30.388 39.4307 30.4115 39.4614 30.4412C39.4912 30.4702 39.5148 30.5047 39.5321 30.5446C39.5494 30.5838 39.558 30.626 39.558 30.6707C39.558 30.7153 39.5494 30.7576 39.5321 30.7967C39.5148 30.8359 39.4912 30.8703 39.4614 30.9001C39.4307 30.9291 39.3961 30.9525 39.356 30.9698C39.3152 30.987 39.2727 30.9956 39.2264 30.9956C39.1792 30.9956 39.136 30.987 39.0951 30.9698C39.0542 30.9525 39.0189 30.9291 38.989 30.9001C38.9592 30.8703 38.9356 30.8359 38.9183 30.7967C38.901 30.7576 38.8923 30.7153 38.8923 30.6707C38.8923 30.626 38.901 30.5838 38.9183 30.5446C38.9356 30.5047 38.9592 30.4702 38.989 30.4412C39.0189 30.4115 39.0542 30.388 39.0951 30.3716C39.136 30.3543 39.1792 30.3457 39.2264 30.3457ZM8.60594 29.1845C8.60594 28.6098 8.98397 28.1377 9.60171 28.1377C10.1919 28.1377 10.5904 28.5895 10.5904 29.1845C10.5904 29.7796 10.1919 30.2314 9.60171 30.2314C8.98397 30.2314 8.60594 29.7593 8.60594 29.1845ZM11.2632 29.1845V27.5496H10.5495V27.9466C10.3232 27.6522 9.97974 27.4674 9.5129 27.4674C8.59258 27.4674 7.8711 28.1862 7.8711 29.1845C7.8711 30.1836 8.59258 30.9016 9.5129 30.9016C9.97974 30.9016 10.3232 30.7169 10.5495 30.4225V30.8194H11.2632V29.1845ZM35.3785 29.1845C35.3785 28.6098 35.7565 28.1377 36.3742 28.1377C36.9653 28.1377 37.3629 28.5895 37.3629 29.1845C37.3629 29.7796 36.9653 30.2314 36.3742 30.2314C35.7565 30.2314 35.3785 29.7593 35.3785 29.1845ZM38.0365 29.1845V26.2366H37.3221V27.9466C37.0957 27.6522 36.7523 27.4674 36.2854 27.4674C35.3651 27.4674 34.6436 28.1862 34.6436 29.1845C34.6436 30.1836 35.3651 30.9016 36.2854 30.9016C36.7523 30.9016 37.0957 30.7169 37.3221 30.4225V30.8194H38.0365V29.1845ZM20.1213 28.104C20.5811 28.104 20.8766 28.3914 20.952 28.8972H19.2489C19.3252 28.425 19.6128 28.104 20.1213 28.104ZM20.1355 27.4674C19.1735 27.4674 18.5007 28.1651 18.5007 29.1845C18.5007 30.2244 19.201 30.9016 20.1834 30.9016C20.6777 30.9016 21.1304 30.7787 21.5289 30.4436L21.1792 29.9166C20.9041 30.1351 20.5536 30.2588 20.2243 30.2588C19.7645 30.2588 19.3456 30.0466 19.2427 29.4578H21.6798C21.6869 29.3693 21.694 29.2801 21.694 29.1845C21.6869 28.1651 21.055 27.4674 20.1355 27.4674ZM28.7523 29.1845C28.7523 28.6098 29.1304 28.1377 29.7481 28.1377C30.3383 28.1377 30.7368 28.5895 30.7368 29.1845C30.7368 29.7796 30.3383 30.2314 29.7481 30.2314C29.1304 30.2314 28.7523 29.7593 28.7523 29.1845ZM31.4096 29.1845V27.5496H30.6959V27.9466C30.4688 27.6522 30.1261 27.4674 29.6593 27.4674C28.739 27.4674 28.0175 28.1862 28.0175 29.1845C28.0175 30.1836 28.739 30.9016 29.6593 30.9016C30.1261 30.9016 30.4688 30.7169 30.6959 30.4225V30.8194H31.4096V29.1845ZM24.7221 29.1845C24.7221 30.1766 25.4153 30.9016 26.4732 30.9016C26.9675 30.9016 27.2968 30.792 27.6536 30.5117L27.311 29.937C27.043 30.1288 26.7616 30.2314 26.4519 30.2314C25.8821 30.2244 25.4632 29.8141 25.4632 29.1845C25.4632 28.555 25.8821 28.1447 26.4519 28.1377C26.7616 28.1377 27.043 28.2402 27.311 28.4321L27.6536 27.8574C27.2968 27.5771 26.9675 27.4674 26.4732 27.4674C25.4153 27.4674 24.7221 28.1925 24.7221 29.1845ZM33.9229 27.4674C33.5111 27.4674 33.2431 27.6593 33.0576 27.9466V27.5496H32.3503V30.8194H33.0647V28.9864C33.0647 28.4454 33.2981 28.1447 33.765 28.1447C33.9096 28.1447 34.0605 28.1651 34.2114 28.2269L34.4314 27.5567C34.2735 27.4948 34.0676 27.4674 33.9229 27.4674ZM14.7927 27.8096C14.4493 27.5841 13.9762 27.4674 13.4543 27.4674C12.6228 27.4674 12.0876 27.8644 12.0876 28.5143C12.0876 29.0475 12.4861 29.3764 13.2201 29.4789L13.5573 29.5267C13.9487 29.5815 14.1334 29.6841 14.1334 29.8689C14.1334 30.1218 13.8724 30.2659 13.3852 30.2659C12.8908 30.2659 12.534 30.1085 12.2935 29.9237L11.9571 30.4773C12.3485 30.7646 12.8429 30.9016 13.3781 30.9016C14.3259 30.9016 14.8753 30.4569 14.8753 29.8344C14.8753 29.2597 14.443 28.959 13.7286 28.8565L13.3922 28.8079C13.0834 28.7672 12.8358 28.7061 12.8358 28.4869C12.8358 28.2473 13.0692 28.104 13.4606 28.104C13.8795 28.104 14.285 28.2614 14.4839 28.3843L14.7927 27.8096ZM24.0006 27.4674C23.5888 27.4674 23.3208 27.6593 23.1361 27.9466V27.5496H22.4288V30.8194H23.1424V28.9864C23.1424 28.4454 23.3758 28.1447 23.8427 28.1447C23.9873 28.1447 24.1382 28.1651 24.2891 28.2269L24.5091 27.5567C24.3512 27.4948 24.1453 27.4674 24.0006 27.4674ZM17.9105 27.5496H16.7434V26.5576H16.0219V27.5496H15.3562V28.1995H16.0219V29.6911C16.0219 30.4499 16.3174 30.9016 17.1615 30.9016C17.4712 30.9016 17.828 30.8061 18.0543 30.6487L17.8484 30.0396C17.6354 30.1625 17.402 30.2244 17.2165 30.2244C16.8597 30.2244 16.7434 30.0051 16.7434 29.677V28.1995H17.9105V27.5496ZM7.24 30.8194V28.7672C7.24 27.9944 6.74566 27.4745 5.94873 27.4674C5.52983 27.4604 5.09757 27.5904 4.79499 28.0492C4.56864 27.6867 4.21183 27.4674 3.71041 27.4674C3.35989 27.4674 3.01723 27.57 2.74923 27.9529V27.5496H2.03482V30.8194H2.75551V29.0068C2.75551 28.4391 3.07145 28.1377 3.55951 28.1377C4.03343 28.1377 4.27313 28.4454 4.27313 28.9998V30.8194H4.99461V29.0068C4.99461 28.4391 5.32392 28.1377 5.79783 28.1377C6.2851 28.1377 6.51852 28.4454 6.51852 28.9998V30.8194H7.24Z" fill="#666F7C"/>
<path d="M39.6106 19.9451V19.4674H39.4857L39.3411 19.7955L39.1972 19.4674H39.0715V19.9451H39.1603V19.5849L39.2955 19.8957H39.3874L39.5226 19.5841V19.9451H39.6106ZM38.8176 19.9451V19.5489H38.978V19.4682H38.5693V19.5489H38.7296V19.9451H38.8176Z" fill="#F79410"/>
<path d="M25.4011 21.9998H14.5855V2.63477H25.4011V21.9998Z" fill="#FF5F00"/>
<path d="M15.2784 12.3156C15.2784 8.38733 17.1245 4.88813 19.9994 2.6331C17.8971 0.984113 15.2438 -0.000110692 12.3602 -0.000110692C5.5337 -0.000110692 0 5.51374 0 12.3156C0 19.1175 5.5337 24.6313 12.3602 24.6313C15.2438 24.6313 17.8971 23.6471 19.9994 21.9981C17.1245 19.7431 15.2784 16.2439 15.2784 12.3156Z" fill="#EB001B"/>
<path d="M39.9879 12.3156C39.9879 19.1175 34.4542 24.6313 27.6277 24.6313C24.7441 24.6313 22.0908 23.6471 19.9877 21.9981C22.8634 19.7431 24.7095 16.2439 24.7095 12.3156C24.7095 8.38733 22.8634 4.88813 19.9877 2.6331C22.0908 0.984113 24.7441 -0.000110692 27.6277 -0.000110692C34.4542 -0.000110692 39.9879 5.51374 39.9879 12.3156Z" fill="#F79E1B"/>
</svg>
