<?xml version="1.0" encoding="utf-8"?>
<!-- Generator: Adobe Illustrator 25.0.0, SVG Export Plug-In . SVG Version: 6.00 Build 0)  -->
<svg version="1.1" id="Слой_1" xmlns="http://www.w3.org/2000/svg" xmlns:xlink="http://www.w3.org/1999/xlink" x="0px" y="0px" width="5.539mm" height="6.878mm"
	 viewBox="0 0 15.7 19.5" style="enable-background:new 0 0 15.7 19.5;" xml:space="preserve">
<style type="text/css">
	.st0{fill:#686363;}
</style>
<g id="Слой_2_1_">
</g>
<path class="st0" d="M5.6,0.3c-1.2,0-2.1,1-2.1,2.1v16.1c0,0.4,0.3,0.7,0.7,0.7h2.9c0.4,0,0.7-0.3,0.7-0.7V2.4
	C7.7,1.3,6.8,0.3,5.6,0.3z M5.6,1.1C6.4,1.1,7,1.7,7,2.5V4H4.2V2.4C4.2,1.7,4.8,1.1,5.6,1.1z M4.2,18.5V4.7H7v13.8H4.2z"/>
<circle class="st0" cx="5.6" cy="16.9" r="0.5"/>
<path class="st0" d="M11.5,4.1V0.5h-1.2V4H9.7v15.2h2.5V4.1H11.5z M11.4,18.5h-1V4.8h1V18.5z"/>
</svg>
