<svg width="24" height="24" viewBox="0 0 24 24" fill="none" xmlns="http://www.w3.org/2000/svg">
<path d="M18 7L18.4965 7.05911C18.5237 6.83085 18.3917 6.61347 18.1767 6.53225C17.9616 6.45103 17.7189 6.5269 17.5884 6.71613L18 7ZM14 12.8L13.5884 12.5161C13.4829 12.6691 13.4709 12.8679 13.5573 13.0325C13.6437 13.197 13.8142 13.3 14 13.3V12.8ZM17.5 12.8L17.9709 12.9682C18.0256 12.815 18.0024 12.6449 17.9087 12.512C17.815 12.3791 17.6626 12.3 17.5 12.3V12.8ZM16 17L15.5291 16.8318C15.4481 17.0586 15.5403 17.3109 15.7484 17.4321C15.9565 17.5533 16.2215 17.5089 16.3787 17.3265L16 17ZM21 11.2L21.3787 11.5265C21.5064 11.3784 21.536 11.1695 21.4546 10.9917C21.3731 10.814 21.1955 10.7 21 10.7V11.2ZM17.5 11.2L17.0035 11.1409C16.9866 11.2828 17.0312 11.4251 17.1261 11.532C17.221 11.6389 17.3571 11.7 17.5 11.7V11.2ZM17.5884 6.71613L13.5884 12.5161L14.4116 13.0839L18.4116 7.28387L17.5884 6.71613ZM14 13.3H17.5V12.3H14V13.3ZM17.0291 12.6318L15.5291 16.8318L16.4709 17.1682L17.9709 12.9682L17.0291 12.6318ZM16.3787 17.3265L21.3787 11.5265L20.6213 10.8735L15.6213 16.6735L16.3787 17.3265ZM21 10.7H17.5V11.7H21V10.7ZM17.9965 11.2591L18.4965 7.05911L17.5035 6.94089L17.0035 11.1409L17.9965 11.2591Z" fill="#686363"/>
<rect x="11.5" y="2.5" width="12" height="21" rx="1.5" stroke="#686363"/>
<path d="M1 19C1.33333 19.6667 2.33557 21 3.5 21C5.74458 21 7 11 4.5 11C2 11 4 21 7 21C10 21 11 11 8.5 11C6 11 8 21 11.5 21" stroke="#686363"/>
<path d="M1.5 8C1.5 7.72386 1.27614 7.5 1 7.5C0.723858 7.5 0.5 7.72386 0.5 8H1.5ZM0.5 22C0.5 22.2761 0.723858 22.5 1 22.5C1.27614 22.5 1.5 22.2761 1.5 22H0.5ZM0.5 8V22H1.5V8H0.5Z" fill="#686363"/>
<rect x="15.5" y="0.5" width="4" height="2" rx="0.5" stroke="#686363"/>
</svg>
