<svg width="24" height="24" viewBox="0 0 24 24" fill="none" xmlns="http://www.w3.org/2000/svg">
<rect x="4" y="5" width="1" height="2" fill="#686363"/>
<rect x="2" y="5" width="1" height="2" fill="#686363"/>
<rect x="6" y="5" width="1" height="2" fill="#686363"/>
<rect x="8" y="5" width="1" height="2" fill="#686363"/>
<rect x="1" y="11" width="5" height="1" fill="#686363"/>
<rect y="5" width="12" height="1" fill="#686363"/>
<rect x="1" y="19" width="5" height="1" fill="#686363"/>
<rect x="6" y="11" width="1" height="9" fill="#686363"/>
<rect x="14" y="15" width="5" height="1" fill="#686363"/>
<rect x="14" y="19" width="5" height="1" fill="#686363"/>
<rect x="13" y="15" width="1" height="5" fill="#686363"/>
<rect x="19" y="15" width="1" height="5" fill="#686363"/>
<rect x="13" y="9" width="1" height="2" fill="#F11117"/>
<rect x="19" y="9" width="1" height="2" fill="#F11117"/>
<rect x="15" y="9" width="1" height="2" fill="#686363"/>
<rect x="17" y="9" width="1" height="2" fill="#686363"/>
<path d="M0.5 7.5H11.5V22C11.5 22.8284 10.8284 23.5 10 23.5H2C1.17157 23.5 0.5 22.8284 0.5 22V7.5Z" stroke="#686363"/>
<path d="M11.5 13C11.5 12.1716 12.1716 11.5 13 11.5H20C21.933 11.5 23.5 13.067 23.5 15V21C23.5 21.8284 22.8284 22.5 22 22.5H11.5V13Z" stroke="#686363"/>
<path d="M13.5 8.5H19.5V11.5H13.5V8.5Z" stroke="#686363"/>
<path d="M13.5 8.04647L14.915 0.5H18.085L19.5 8.04647V8.5H13.5V8.04647Z" stroke="#686363"/>
<path d="M11.0541 5.0777C11.2284 5.17457 11.3801 5.25368 11.5 5.31407V7.5H0.5V5.31407C0.619934 5.25368 0.771581 5.17457 0.945946 5.0777C1.38296 4.83492 1.96854 4.47734 2.55697 4.01968C3.59079 3.2156 4.74881 2.01258 4.96445 0.5H7.03555C7.25119 2.01258 8.40921 3.2156 9.44303 4.01968C10.0315 4.47734 10.617 4.83492 11.0541 5.0777Z" stroke="#686363"/>
</svg>
