<?xml version="1.0" encoding="UTF-8"?>
<!DOCTYPE svg PUBLIC "-//W3C//DTD SVG 1.1//EN" "http://www.w3.org/Graphics/SVG/1.1/DTD/svg11.dtd">
<!-- Creator: CorelDRAW -->
<svg xmlns="http://www.w3.org/2000/svg" xml:space="preserve" width="24px" height="24px" version="1.1" style="shape-rendering:geometricPrecision; text-rendering:geometricPrecision; image-rendering:optimizeQuality; fill-rule:evenodd; clip-rule:evenodd"
viewBox="0 0 24 24"
 xmlns:xlink="http://www.w3.org/1999/xlink"
 xmlns:xodm="http://www.corel.com/coreldraw/odm/2003">
 <defs>
  <style type="text/css">
   <![CDATA[
    .str1 {stroke:#686363;stroke-width:14.77;stroke-miterlimit:22.9256}
    .str0 {stroke:#686363;stroke-width:14.77;stroke-linecap:round;stroke-linejoin:round;stroke-miterlimit:4}
    .fil2 {fill:none;fill-rule:nonzero}
    .fil1 {fill:#686363}
    .fil0 {fill:#686363;fill-rule:nonzero}
   ]]>
  </style>
 </defs>
 <g id="Слой_x0020_1">
  <metadata id="CorelCorpID_0Corel-Layer"/>
  <g id="_2166649350288">
   <path class="fil0" d="M10.08 18.23l0 4.95c0,0.1 -0.01,0.21 -0.01,0.32 0,0.14 -0.06,0.27 -0.15,0.36 -0.1,0.1 -0.23,0.16 -0.37,0.16l-4.49 0c-0.14,0 -0.27,-0.06 -0.36,-0.15l0 -0.01c-0.1,-0.09 -0.16,-0.22 -0.16,-0.36 0,-0.12 -0.01,-0.23 -0.01,-0.34l0 -4.93 -0.15 0 0 -1.14 0.41 0 0.01 0c0.07,-1.01 0.2,-1.81 0.49,-2.39 0.37,-0.74 0.97,-1.12 2,-1.12 0.98,-0.01 1.59,0.34 1.98,1.07 0.31,0.57 0.46,1.38 0.54,2.44l0.42 0 0 1.14 -0.15 0zm-4.46 -1.14l3.37 0c-0.07,-0.92 -0.2,-1.6 -0.44,-2.05 -0.24,-0.43 -0.62,-0.64 -1.26,-0.64 -0.66,0 -1.04,0.23 -1.27,0.67 -0.23,0.46 -0.33,1.14 -0.4,2.02zm3.64 1.14l-3.9 0 0 4.51 3.9 0 0 -4.51zm-0.61 3.18c0.05,0 0.1,0.01 0.14,0.02 0.18,0.05 0.31,0.21 0.31,0.4 0,0.23 -0.19,0.41 -0.42,0.41l-0.68 0c-0.23,0 -0.41,-0.18 -0.41,-0.41 0,-0.24 0.2,-0.42 0.44,-0.42l0.62 0zm-2.75 0.82c-0.23,0 -0.42,-0.18 -0.42,-0.41 0,-0.23 0.19,-0.41 0.42,-0.41l0.68 0c0.23,0 0.42,0.18 0.42,0.41 0,0.23 -0.19,0.41 -0.42,0.41l-0.68 0z"/>
   <path class="fil1" d="M15.54 15.83l0 0.45 0.45 0 0.23 0 0 -0.45 -0.22 0 -0.23 0 -0.23 0zm-1.86 -12.3l0.01 0c0.08,-1.01 0.2,-1.81 0.49,-2.39 0.37,-0.74 0.98,-1.12 2,-1.12 0.98,-0.01 1.59,0.34 1.98,1.07 0.32,0.57 0.46,1.38 0.54,2.44l0.42 0 0 1.14 -0.01 0 0 18.55c0.01,0.19 0,0.41 -0.09,0.52 -0.16,0.26 -0.47,0.28 -0.75,0.28l-4.15 0c-0.23,0 -0.62,-0.07 -0.75,-0.29 -0.08,-0.1 -0.1,-0.31 -0.09,-0.52l0 -18.54 -0.01 0c0,-0.38 0,-0.76 0,-1.14l0.41 0zm0.83 0l3.37 0c-0.07,-0.92 -0.19,-1.6 -0.44,-2.05 -0.23,-0.43 -0.62,-0.64 -1.26,-0.64 -0.66,0 -1.04,0.23 -1.26,0.67 -0.23,0.46 -0.34,1.13 -0.41,2.02zm3.78 1.14l-4.19 0 0 18.23c1.4,0 2.79,0 4.19,0l0 -18.23zm-1.87 12.02l-0.44 0 -0.45 0 -0.44 0 0 -0.43 0 -0.43 0.23 0 0 -0.45 0.44 0 0.24 0 0.21 0 0.24 0 0 0.45 0.18 0 0 0.45 0.22 0 0.45 0 0 0.41 -0.44 0 -0.44 0zm-0.02 -5.92l0 0.45 0.45 0 0 -0.45 -0.45 0zm-1.31 1.13l0 0.41 0.44 0 0.45 0 0.44 0 0.44 0 0.44 0 0 -0.43 0 -0.43 -0.45 0 0 0.45 -0.44 0 -0.44 0 -0.44 0 -0.44 0zm0 2.62l0 0.45 0.45 0 0 -0.45 -0.45 0zm0.86 0.45l0 -0.45 0.45 0 0.45 0 0.45 0 0 0.45 -0.45 0 -0.45 0 -0.45 0zm-0.86 -2.21l0 0.45 0.45 0 0.45 0 0 0.41 -0.45 0 -0.45 0 0 0.45 0.45 0 0.45 0 0 -0.45 0.41 0 0 0.45 0.45 0 0.45 0 0 -0.45 -0.45 0 -0.45 0 0 -0.41 0.45 0 0.45 0 0 -0.45 -0.45 0 -0.45 0 0 0.45 -0.41 0 0 -0.45 -0.45 0 -0.45 0z"/>
  </g>
  <g id="_2166649350912">
   <g>
    <line class="fil2 str0" x1="1149.79" y1="129.23" x2="1149.79" y2= "227.31" />
    <line class="fil2 str0" x1="1065.13" y1="130.93" x2="1065.13" y2= "226.87" />
    <line class="fil2 str0" x1="1082.18" y1="202.88" x2="1094.49" y2= "202.88" />
    <line class="fil2 str0" x1="1137.38" y1="125.45" x2="1062.33" y2= "125.45" />
    <line class="fil2 str0" x1="1152.42" y1="125.45" x2="1137.38" y2= "125.45" />
    <g>
     <line class="fil2 str0" x1="1132.16" y1="203.06" x2="1119.85" y2= "203.06" />
     <line class="fil2 str0" x1="1131.6" y1="202.87" x2="1120.41" y2= "202.87" />
    </g>
    <path class="fil0 str0" d="M1067.27 234.94l80.36 0c1.09,0 1.97,-0.88 1.97,-1.97l0 -6.1 -84.3 0 0 6.1c0,1.09 0.88,1.97 1.97,1.97z"/>
    <path class="fil2 str0" d="M1145.5 125.32c-2.58,-42.74 -9.38,-62.97 -38.33,-62.8 -30.3,0.17 -35.19,21.79 -37.8,62.8"/>
    <rect class="fil1 str1" x="1062.33" y="125.45" width="90.22" height="5.75"/>
   </g>
   <path class="fil1" d="M1255.09 95.57l0 8.1 8.11 0 4.05 0 0 -8.1 -3.85 0 -4.25 0 -4.06 0zm15.72 15.39l-7.94 0 -7.94 0 -7.94 0 0 -7.7 0 -7.69 4.05 0 0 -8.1 8.02 0 4.22 0 3.81 0 4.21 0 0 8.1 3.24 0 0 8.1 4.05 0 8.1 0 0 7.29 -7.94 0 -7.94 0zm-0.32 -106.12l0 8.1 8.1 0 0 -8.1 -8.1 0zm-23.5 20.25l0 7.3 7.94 0 7.94 0 7.94 0 7.94 0 7.94 0 0 -7.7 0 -7.7 -8.1 0 0 8.1 -7.9 0 -7.9 0 -7.9 0 -7.9 0zm0 46.99l0 8.1 8.1 0 0 -8.1 -8.1 0zm15.4 8.1l0 -8.1 8.1 0 8.1 0 8.1 0 0 8.1 -8.1 0 -8.1 0 -8.1 0zm-15.4 -39.69l0 8.1 8.1 0 8.11 0 0 7.29 -8.11 0 -8.1 0 0 8.1 8.1 0 8.11 0 0 -8.1 7.29 0 0 8.1 8.1 0 8.1 0 0 -8.1 -8.1 0 -8.1 0 0 -7.29 8.1 0 8.1 0 0 -8.1 -8.1 0 -8.1 0 0 8.1 -7.29 0 0 -8.1 -8.11 0 -8.1 0z"/>
   <g>
    <path class="fil2 str0" d="M1311.28 233.15c0.15,-0.16 0.22,-0.32 0.22,-0.54"/>
    <path class="fil2 str0" d="M1310.76 233.36c0.21,0 0.36,-0.06 0.52,-0.21"/>
    <line class="fil2 str0" x1="1221.93" y1="232.61" x2="1221.93" y2= "229.58" />
    <path class="fil2 str0" d="M1222.37 233.14c0.15,0.15 0.3,0.22 0.52,0.22"/>
    <path class="fil2 str0" d="M1222.16 232.61c0,0.21 0.06,0.37 0.21,0.53"/>
    <line class="fil2 str0" x1="1311.76" y1="229.58" x2="1311.76" y2= "232.61" />
    <line class="fil2 str0" x1="1221.75" y1="-111.04" x2="1221.75" y2= "-111.04" />
    <line class="fil2 str0" x1="1221.82" y1="-111.04" x2="1221.82" y2= "-111.04" />
    <line class="fil2 str0" x1="1221.88" y1="-111.04" x2="1221.89" y2= "-111.04" />
    <line class="fil2 str0" x1="1221.93" y1="-111.04" x2="1221.93" y2= "229.58" />
    <line class="fil2 str0" x1="1311.76" y1="229.58" x2="1311.76" y2= "-111.04" />
    <line class="fil2 str0" x1="1311.87" y1="229.58" x2="1311.83" y2= "229.58" />
    <line class="fil2 str0" x1="1311.93" y1="229.58" x2="1311.89" y2= "229.58" />
    <path class="fil2 str0" d="M1309.63 233.75c0.1,-0.18 0.23,-0.29 0.42,-0.35"/>
    <path class="fil2 str0" d="M1223.66 233.41c0.18,0.07 0.3,0.17 0.39,0.34"/>
    <line class="fil2 str0" x1="1237.54" y1="233.36" x2="1306.63" y2= "233.36" />
    <line class="fil2 str0" x1="1222.89" y1="233.36" x2="1237.54" y2= "233.36" />
    <polyline class="fil2 str0" points="1222.46,233.36 1222.46,233.36 1222.7,233.36 "/>
    <line class="fil2 str0" x1="1310.98" y1="233.36" x2="1311.22" y2= "233.36" />
    <line class="fil2 str0" x1="1309.45" y1="233.36" x2="1310.76" y2= "233.36" />
    <line class="fil2 str0" x1="1309.45" y1="233.36" x2="1306.63" y2= "233.36" />
    <line class="fil2 str0" x1="1236.08" y1="229.58" x2="1221.71" y2= "229.58" />
    <line class="fil2 str0" x1="1243.32" y1="229.58" x2="1241.5" y2= "229.58" />
    <line class="fil2 str0" x1="1255.7" y1="229.58" x2="1248.52" y2= "229.58" />
    <path class="fil2 str0" d="M1305.88 234.87c-0.81,0.02 -0.61,0.03 -0.92,0.04 -0.3,0 -0.61,0.01 -0.91,0.01"/>
    <path class="fil2 str0" d="M1305.87 234.87c1.38,-0.08 2.81,0.6 3.76,-1.12"/>
    <path class="fil2 str0" d="M1224.05 233.75c0.69,1.24 4.56,1.17 5.5,1.17"/>
    <line class="fil2 str0" x1="1229.66" y1="234.92" x2="1304.02" y2= "234.92" />
    <line class="fil2 str0" x1="1229.58" y1="234.92" x2="1229.66" y2= "234.92" />
    <line class="fil2 str0" x1="1221.79" y1="-111.04" x2="1221.75" y2= "-111.04" />
    <line class="fil2 str0" x1="1221.85" y1="-111.04" x2="1221.82" y2= "-111.04" />
    <line class="fil2 str0" x1="1237.37" y1="-111.04" x2="1221.89" y2= "-111.04" />
    <line class="fil2 str0" x1="1237.37" y1="229.58" x2="1236.08" y2= "229.58" />
    <line class="fil2 str0" x1="1237.37" y1="-111.04" x2="1311.97" y2= "-111.04" />
    <line class="fil2 str0" x1="1241.5" y1="229.58" x2="1237.37" y2= "229.58" />
    <line class="fil2 str0" x1="1248.52" y1="229.58" x2="1243.32" y2= "229.58" />
    <line class="fil2 str0" x1="1311.83" y1="229.58" x2="1255.7" y2= "229.58" />
    <line class="fil2 str0" x1="1296.78" y1="-117.66" x2="1221.73" y2= "-117.66" />
    <line class="fil2 str0" x1="1311.82" y1="-117.66" x2="1296.78" y2= "-117.66" />
    <path class="fil2 str0" d="M1304.9 -117.79c-2.58,-42.73 -9.38,-62.96 -38.33,-62.8 -30.3,0.18 -35.19,21.79 -37.8,62.8"/>
    <rect class="fil1 str1" x="1221.73" y="-117.66" width="90.22" height="5.75"/>
   </g>
  </g>
 </g>
</svg>
