<?xml version="1.0" encoding="utf-8"?>
<!-- Generator: Adobe Illustrator 25.0.0, SVG Export Plug-In . SVG Version: 6.00 Build 0)  -->
<svg width="48" height="32" version="1.1" id="Слой_1" xmlns="http://www.w3.org/2000/svg" xmlns:xlink="http://www.w3.org/1999/xlink" x="0px" y="0px"
	 viewBox="0 0 48 32" style="enable-background:new 0 0 48 32;" xml:space="preserve">
<style type="text/css">
	.st0{fill:url(#SVGID_1_);}
	.st1{fill:url(#SVGID_2_);}
	.st2{fill:url(#SVGID_3_);}
	.st3{fill:url(#SVGID_4_);}
	.st4{fill:#666F7C;}
</style>
<g>
	<linearGradient id="SVGID_1_" gradientUnits="userSpaceOnUse" x1="1.2155" y1="8.0513" x2="13.6153" y2="18.9895">
		<stop  offset="0" style="stop-color:#F6B55E"/>
		<stop  offset="0.6891" style="stop-color:#E73B30"/>
	</linearGradient>
	<polygon class="st0" points="1.1,8.6 4.8,8.6 8.4,13.1 6.5,15.3 	"/>
	<linearGradient id="SVGID_2_" gradientUnits="userSpaceOnUse" x1="6.8809" y1="7.9895" x2="13.4218" y2="13.7595">
		<stop  offset="0" style="stop-color:#F6B55E"/>
		<stop  offset="0.6891" style="stop-color:#E73B30"/>
	</linearGradient>
	<path class="st1" d="M11.3,11.8c0.5-0.6,0.4-1.3,0.2-1.6c-0.4-0.5-0.8-0.9-0.9-1.1C10.3,8.7,10,8.6,9.3,8.6c-0.7,0-2.8,0-2.8,0
		l3.6,4.5C10.8,12.4,11.2,11.9,11.3,11.8z"/>
	<linearGradient id="SVGID_3_" gradientUnits="userSpaceOnUse" x1="12.4286" y1="14.302" x2="0.8067" y2="21.4634">
		<stop  offset="0" style="stop-color:#F6B55E"/>
		<stop  offset="0.883" style="stop-color:#E73B30"/>
	</linearGradient>
	<path class="st2" d="M1.4,23.7c0,0,9.3-11.3,9.8-11.9c0.5-0.7,0.4-1.3,0.2-1.7c-0.3-0.3,1.3,1.6,1.8,2.2c0.4,0.6,0.5,1.1,0,1.7
		c-0.5,0.5-8,9.8-8,9.8H1.4z"/>
	<linearGradient id="SVGID_4_" gradientUnits="userSpaceOnUse" x1="15.3631" y1="17.1916" x2="6.738" y2="22.5064">
		<stop  offset="0" style="stop-color:#F6B55E"/>
		<stop  offset="0.883" style="stop-color:#E73B30"/>
	</linearGradient>
	<path class="st3" d="M6.9,23.7l7.8-9.6c0,0,0.7,0.9,1.2,1.5c0.5,0.6,0.3,1.1,0,1.5c-0.3,0.4-4.8,5.8-5,6.1s-0.4,0.5-0.9,0.5
		C9.4,23.7,6.9,23.7,6.9,23.7z"/>
</g>
<g>
	<path class="st4" d="M24.8,16.7H20c0.1,0.4,0.3,0.8,0.7,1.1c0.4,0.3,0.8,0.4,1.3,0.4c0.7,0,1.2-0.3,1.6-0.8l1.1,0.5
		c-0.2,0.4-0.9,1.1-1.3,1.2c-0.4,0.2-0.9,0.3-1.4,0.3c-0.7,0-1.3-0.1-1.8-0.4c-0.5-0.3-0.9-0.6-1.2-1.1c-0.3-0.5-0.4-1-0.4-1.6
		c0-0.6,0.1-1.1,0.4-1.6c0.3-0.5,0.6-0.8,1.1-1.1c0.5-0.3,1-0.4,1.6-0.4c0.6,0,1.1,0.1,1.6,0.4c0.5,0.3,0.8,0.6,1.1,1.1
		c0.3,0.5,0.4,1,0.4,1.6C24.8,16.4,24.8,16.5,24.8,16.7z M20.6,14.7c-0.3,0.3-0.5,0.6-0.6,1.1h3.4c-0.1-0.4-0.2-0.8-0.6-1.1
		c-0.3-0.3-0.7-0.4-1.2-0.4C21.3,14.3,20.9,14.4,20.6,14.7z"/>
	<path class="st4" d="M30.6,13.6c0.5,0.3,0.8,0.6,1.1,1.1c0.3,0.5,0.4,1,0.4,1.6c0,0.6-0.1,1.2-0.4,1.6c-0.3,0.5-0.6,0.8-1.1,1.1
		c-0.5,0.3-1,0.4-1.6,0.4c-0.8,0-1.5-0.3-1.9-0.8v2.9h-1.4v-8.3H27V14c0.2-0.3,0.5-0.5,0.9-0.6c0.3-0.1,0.7-0.2,1.1-0.2
		C29.6,13.2,30.1,13.3,30.6,13.6z M30.1,17.6c0.3-0.3,0.5-0.8,0.5-1.4c0-0.6-0.2-1-0.5-1.4c-0.3-0.3-0.8-0.5-1.3-0.5
		c-0.3,0-0.6,0.1-0.9,0.2c-0.3,0.2-0.5,0.4-0.6,0.7c-0.2,0.3-0.2,0.6-0.2,1c0,0.4,0.1,0.7,0.2,1c0.2,0.3,0.4,0.5,0.6,0.7
		c0.3,0.2,0.6,0.2,0.9,0.2C29.4,18.2,29.8,18,30.1,17.6z"/>
	<path class="st4" d="M32.8,13.2h1.4v4l3.4-4h1.3v6.1h-1.4v-4l-3.3,4h-1.3V13.2z"/>
	<path class="st4" d="M45.9,13.2v6.1h-1.4v-4.9h-3v4.9h-1.4v-6.1H45.9z"/>
</g>
</svg>
