<svg width="49" height="16" viewBox="0 0 49 16" fill="none" xmlns="http://www.w3.org/2000/svg">
<path d="M21.2333 15.7692H17.2639L19.7467 0.280762H23.7158L21.2333 15.7692Z" fill="#666F7C"/>
<path d="M35.6225 0.659403C34.8396 0.346017 33.5978 0 32.0623 0C28.1425 0 25.3821 2.10895 25.3652 5.12412C25.3326 7.3487 27.3415 8.58428 28.844 9.32603C30.3797 10.084 30.9017 10.5787 30.9017 11.2543C30.8861 12.2919 29.6608 12.7702 28.518 12.7702C26.9332 12.7702 26.0841 12.5236 24.7937 11.9463L24.271 11.6989L23.7155 15.1757C24.6465 15.6036 26.3617 15.9834 28.1425 16C32.3074 16 35.0189 13.9237 35.051 10.7105C35.0668 8.94738 34.0061 7.59638 31.7191 6.49242C30.3308 5.78374 29.4806 5.30588 29.4806 4.58078C29.4969 3.9216 30.1997 3.24643 31.7669 3.24643C33.0573 3.21336 34.0054 3.52631 34.7237 3.83947L35.0827 4.00394L35.6225 0.659403Z" fill="#666F7C"/>
<path d="M40.8981 10.2822C41.225 9.39239 42.4829 5.94865 42.4829 5.94865C42.4664 5.98172 42.8091 5.04243 43.0051 4.46581L43.2825 5.80039C43.2825 5.80039 44.0342 9.5078 44.1974 10.2822C43.5771 10.2822 41.6821 10.2822 40.8981 10.2822ZM45.7978 0.280762H42.7275C41.7807 0.280762 41.0614 0.560641 40.6528 1.56584L34.7569 15.769H38.9218C38.9218 15.769 39.6075 13.8573 39.7549 13.4456C40.2118 13.4456 44.2634 13.4456 44.8512 13.4456C44.9651 13.9894 45.3248 15.769 45.3248 15.769H49L45.7978 0.280762Z" fill="#666F7C"/>
<path d="M13.9486 0.280762L10.0613 10.8424L9.63653 8.70036C8.91785 6.22875 6.66392 3.5434 4.14865 2.20816L7.70927 15.7528H11.9067L18.1459 0.280762H13.9486Z" fill="#666F7C"/>
<path d="M6.45162 0.280762H0.0653342L0 0.593709C4.9817 1.87901 8.28099 4.97717 9.63652 8.70101L8.24821 1.5827C8.01965 0.593491 7.31725 0.313392 6.45162 0.280762Z" fill="#FAA61A"/>
</svg>
